<svg width="30" height="30" viewBox="0 0 30 30" fill="none" xmlns="http://www.w3.org/2000/svg">
<path d="M0.26416 8.70289H6.37265V29.4718H0.26416V8.70289ZM3.30008 6.25949H3.26587C1.4431 6.25949 0.26416 4.90096 0.26416 3.20402C0.26416 1.47043 1.47975 0.151001 3.33551 0.151001C5.19371 0.151001 6.33844 1.47043 6.37265 3.20402C6.37265 4.89974 5.19371 6.25949 3.30008 6.25949ZM29.5849 29.4718H23.4764V18.3555C23.4764 15.6702 21.9798 13.8377 19.5768 13.8377C17.743 13.8377 16.751 15.074 16.2696 16.2689C16.0937 16.6965 16.1462 17.8791 16.1462 18.4765V29.4718H10.0377V8.70289H16.1462V11.8988C17.0271 10.5354 18.4064 8.70289 21.9346 8.70289C26.3059 8.70289 29.5837 11.4517 29.5837 17.5895L29.5849 29.4718Z" fill="white"/>
</svg>
