<svg width="34" height="35" viewBox="0 0 34 35" fill="none" xmlns="http://www.w3.org/2000/svg">
<path d="M10.3058 0.943359C4.8974 0.943359 0.452881 5.38193 0.452881 10.7963V24.5999C0.452881 30.0083 4.89145 34.4528 10.3058 34.4528H24.1094C29.5178 34.4528 33.9623 30.0142 33.9623 24.5999V10.7963C33.9623 5.38788 29.5237 0.943359 24.1094 0.943359H10.3058ZM10.3058 3.98967H24.1094C27.8756 3.98967 30.916 7.03003 30.916 10.7963V24.5999C30.916 28.3661 27.8756 31.4065 24.1094 31.4065H10.3058C6.53956 31.4065 3.49919 28.3661 3.49919 24.5999V10.7963C3.49919 7.03003 6.53956 3.98967 10.3058 3.98967ZM26.2037 7.32158C25.4362 7.32158 24.8234 7.93441 24.8234 8.70194C24.8234 9.46946 25.4362 10.0823 26.2037 10.0823C26.9713 10.0823 27.5841 9.46946 27.5841 8.70194C27.5841 7.93441 26.9713 7.32158 26.2037 7.32158ZM17.2076 8.55914C12.18 8.55914 8.06866 12.6705 8.06866 17.6981C8.06866 22.7257 12.18 26.837 17.2076 26.837C22.2352 26.837 26.3465 22.7257 26.3465 17.6981C26.3465 12.6705 22.2352 8.55914 17.2076 8.55914ZM17.2076 11.6055C20.5931 11.6055 23.3002 14.3126 23.3002 17.6981C23.3002 21.0835 20.5931 23.7907 17.2076 23.7907C13.8221 23.7907 11.115 21.0835 11.115 17.6981C11.115 14.3126 13.8221 11.6055 17.2076 11.6055Z" fill="white"/>
</svg>
