<svg width="28" height="24" viewBox="0 0 28 24" fill="none" xmlns="http://www.w3.org/2000/svg">
<path fill-rule="evenodd" clip-rule="evenodd" d="M16.8165 0.477284L27.5079 10.8477C28.164 11.4841 28.164 12.5159 27.5079 13.1523L16.8165 23.5227C16.1604 24.1591 15.0967 24.1591 14.4406 23.5227C13.7845 22.8863 13.7845 21.8545 14.4406 21.2182L22.2641 13.6296L1.68 13.6296C0.752164 13.6296 2.2555e-06 12.9 2.09815e-06 12C1.94079e-06 11.1 0.752163 10.3704 1.68 10.3704L22.2641 10.3704L14.4406 2.78183C13.7845 2.14545 13.7845 1.11367 14.4406 0.477284C15.0967 -0.159098 16.1604 -0.159098 16.8165 0.477284Z" fill="black"/>
</svg>
